<?xml version="1.0" encoding="utf-8"?>
<!-- Generator: Adobe Illustrator 21.0.0, SVG Export Plug-In . SVG Version: 6.00 Build 0)  -->
<svg version="1.1" id="Warstwa_2" xmlns="http://www.w3.org/2000/svg" xmlns:xlink="http://www.w3.org/1999/xlink" x="0px" y="0px"
	 viewBox="0 0 12624 5000" style="enable-background:new 0 0 12624 5000;" xml:space="preserve">
<style type="text/css">
	.st0{fill:#FFFFFF;}
	.st1{fill:url(#SVGID_1_);}
	.st2{fill:url(#SVGID_2_);}
	.st3{fill:url(#SVGID_3_);}
	.st4{fill:url(#SVGID_4_);}
	.st5{fill:url(#SVGID_5_);}
	.st6{fill:url(#SVGID_6_);}
	.st7{fill:url(#SVGID_7_);}
</style>
<g>
	<path class="st0" d="M4801.3,2210.5l281.1-571.5h473.7l-480.8,852.5l493.8,866.7h-478.4l-289.4-582.1l-289.4,582.1h-477.2
		l492.6-866.7L4047.7,1639h472.5L4801.3,2210.5z"/>
	<path class="st0" d="M6342.4,2749.7H6118v608.5h-414.6V1639h676.9c203.9,0,363.4,45.2,478.4,135.6
		c115,90.4,172.5,218.1,172.5,383.2c0,119.5-24.2,218.5-72.7,297.2c-48.4,78.6-124.2,142.3-227.4,191l359.1,694.6v17.7H6646
		L6342.4,2749.7z M6118,2430.5h262.2c78.8,0,138-20.7,177.8-62c39.8-41.3,59.6-99,59.6-173c0-74-20.1-132-60.3-174.2
		c-40.2-42.1-99.2-63.2-177.2-63.2H6118V2430.5z"/>
	<path class="st0" d="M7697,2775.9v582.4h-414.6V1639h686.3c131.5,0,247.8,24.2,349,72.7s179.6,117.4,235.1,206.8
		c55.5,89.4,83.3,190.8,83.3,304.3c0,167.8-60.1,301.9-180.1,402.4c-120.1,100.5-284.9,150.6-494.4,150.6H7697z M7697,2454.8h271.7
		c80.3,0,141.5-20.1,183.7-60.3c42.1-40.2,63.2-96.9,63.2-170.2c0-80.4-21.7-144.6-65-192.7s-102.4-72.5-177.2-73.3H7697V2454.8z"/>
	<path class="st0" d="M9271.2,3039.1H9993v319.2H8856.6V1639h414.6V3039.1z"/>
	<linearGradient id="SVGID_1_" gradientUnits="userSpaceOnUse" x1="10385.7041" y1="3039.0549" x2="10385.7041" y2="3371.3279">
		<stop  offset="0" style="stop-color:#290A68"/>
		<stop  offset="1" style="stop-color:#C332EC"/>
	</linearGradient>
	<path class="st1" d="M10211.7,3208.2c0-48.3,14.3-88.6,43.1-120.8c28.8-32.2,71.9-48.3,129.3-48.3c57.5,0,101.1,16.1,130.8,48.3
		c29.7,32.2,44.6,72.5,44.6,120.8c0,46.3-14.9,85.1-44.6,116.3c-29.7,31.2-73.4,46.8-130.8,46.8c-57.5,0-100.6-15.6-129.3-46.8
		C10226.1,3293.3,10211.7,3254.5,10211.7,3208.2z"/>
	<g>
		<linearGradient id="SVGID_2_" gradientUnits="userSpaceOnUse" x1="10981.3223" y1="1864.49" x2="10981.3223" y2="3358.261">
			<stop  offset="0" style="stop-color:#4024F3"/>
			<stop  offset="1" style="stop-color:#071A45"/>
		</linearGradient>
		<path class="st2" d="M11118.3,1864.5V2154h202v231.2h-202v591.1c0,43.8,8.4,75.2,25.1,94.1c16.7,19,48.8,28.5,96.1,28.5
			c34.9,0,65.8-2.5,92.8-7.6v238.6c-61.9,18.9-125.6,28.3-191,28.3c-221.2,0-334-111.9-338.4-335.7v-637.4h-172.5V2154h172.5v-218
			L11118.3,1864.5z"/>
		<linearGradient id="SVGID_3_" gradientUnits="userSpaceOnUse" x1="11973.499" y1="2133.8916" x2="11973.499" y2="3358.261">
			<stop  offset="0" style="stop-color:#4024F3"/>
			<stop  offset="1" style="stop-color:#071A45"/>
		</linearGradient>
		<path class="st3" d="M11414.1,2735.2c0-117.1,22.6-221.5,67.7-313.2c45.1-91.7,110.1-162.6,194.9-212.8
			c84.8-50.2,183.2-75.3,295.3-75.3c159.4,0,289.4,48.8,390.2,146.2c100.8,97.5,157,229.9,168.7,397.2l2.2,80.7
			c0,181.2-50.6,326.5-151.7,436c-101.2,109.5-236.9,164.2-407.2,164.2s-306.2-54.5-407.7-163.7
			c-101.5-109.1-152.3-257.5-152.3-445.3V2735.2z M11729.5,2757.5c0,111.9,21.1,197.4,63.3,256.6c42.2,59.2,102.6,88.8,181.2,88.8
			c76.4,0,136.1-29.2,179-87.7c42.9-58.5,64.4-152,64.4-280.6c0-109.7-21.5-194.7-64.4-255c-42.9-60.3-103.3-90.4-181.2-90.4
			c-77.2,0-136.8,30-179.1,89.9S11729.5,2631.9,11729.5,2757.5z"/>
	</g>
</g>
<linearGradient id="SVGID_4_" gradientUnits="userSpaceOnUse" x1="1430.4972" y1="278.5988" x2="1430.4972" y2="4737.9116">
	<stop  offset="0.5025" style="stop-color:#4E1587"/>
	<stop  offset="1" style="stop-color:#C332EC"/>
</linearGradient>
<path class="st4" d="M0,288l1171.9-9.4c0,0,1689.1,1170.1,1689.1,2233.6S1171.9,4737.9,1171.9,4737.9L0,4736
	c0,0,2160.2-1517.8,2160.2-2227.7S0,288,0,288z"/>
<linearGradient id="SVGID_5_" gradientUnits="userSpaceOnUse" x1="1430.4972" y1="278.5989" x2="1430.4972" y2="4053.9648">
	<stop  offset="0" style="stop-color:#290A68"/>
	<stop  offset="1" style="stop-color:#C332EC"/>
</linearGradient>
<path class="st5" d="M1941.8,2013.2c19.8,21,38.7,45.3,56.6,73.1c567.3,879.8,108,1765.1-12.2,1967.6
	c432.1-427,874.8-997.4,874.8-1541.8c0-1063.4-1689.1-2233.6-1689.1-2233.6L0,288C0,288,1393,1261.9,1941.8,2013.2z"/>
<g>
	<linearGradient id="SVGID_6_" gradientUnits="userSpaceOnUse" x1="3801.531" y1="278.5989" x2="3801.531" y2="2200.2498">
		<stop  offset="0" style="stop-color:#4024F3"/>
		<stop  offset="1" style="stop-color:#071A45"/>
	</linearGradient>
	<path class="st6" d="M2959.6,2200.2c421-766.2,2062.8-1919.7,2062.8-1919.7l-1171.9-1.9c0,0-769.6,529.6-1269.8,1200.8
		C2751.5,1708.4,2891.5,1953.9,2959.6,2200.2z"/>
	<linearGradient id="SVGID_7_" gradientUnits="userSpaceOnUse" x1="3803.7307" y1="2818.5835" x2="3803.7307" y2="4737.9116">
		<stop  offset="0" style="stop-color:#4024F3"/>
		<stop  offset="1" style="stop-color:#071A45"/>
	</linearGradient>
	<path class="st7" d="M2961.1,2818.6c-67,245.7-205.9,490.3-376,718.5c500.3,670.8,1265.4,1200.8,1265.4,1200.8l1171.9-9.4
		C5022.4,4728.5,3384.4,3583.3,2961.1,2818.6z"/>
</g>
</svg>
